<?xml version="1.0" standalone="no"?>
<!DOCTYPE svg PUBLIC "-//W3C//DTD SVG 20010904//EN"
 "http://www.w3.org/TR/2001/REC-SVG-20010904/DTD/svg10.dtd">
<svg version="1.0" xmlns="http://www.w3.org/2000/svg"
 width="220.000000pt" height="84.000000pt" viewBox="0 0 220.000000 84.000000"
 preserveAspectRatio="xMidYMid meet">

<g transform="translate(0.000000,84.000000) scale(0.100000,-0.100000)"
fill="#000000" stroke="none">
<path d="M1104 379 c-75 -22 -106 -116 -65 -197 39 -76 141 -82 189 -12 20 30
21 36 8 38 -9 2 -28 -10 -42 -27 -65 -78 -163 6 -133 113 11 40 26 54 66 62
23 4 36 0 60 -20 29 -24 53 -33 53 -20 0 19 -26 48 -55 60 -38 16 -38 16 -81
3z"/>
<path d="M2 258 c3 -108 5 -123 21 -126 14 -3 17 4 17 46 l0 50 60 4 c72 5
100 26 100 75 0 57 -27 73 -120 73 l-81 0 3 -122z m160 66 c11 -23 10 -29 -11
-45 -15 -12 -39 -19 -67 -19 l-44 0 0 45 0 45 55 0 c50 0 57 -3 67 -26z"/>
<path d="M320 255 c0 -104 2 -125 15 -125 12 0 15 13 15 55 l0 55 33 0 c34 0
66 -25 102 -82 9 -16 26 -28 36 -28 18 0 19 2 5 29 -9 16 -27 43 -42 60 -18
21 -21 31 -11 31 23 0 47 34 47 67 0 50 -25 63 -118 63 l-82 0 0 -125z m140
92 c59 -30 26 -77 -56 -77 l-54 0 0 38 c0 21 3 42 7 45 11 11 76 8 103 -6z"/>
<path d="M1341 298 c0 -112 14 -148 62 -167 31 -11 45 -12 78 -2 54 16 69 53
69 166 0 78 -2 85 -20 85 -19 0 -20 -7 -20 -93 0 -111 -10 -131 -65 -131 -55
0 -65 20 -65 131 0 86 -1 93 -20 93 -18 0 -20 -6 -19 -82z"/>
<path d="M1670 255 c0 -104 2 -125 15 -125 12 0 15 13 15 55 l0 55 34 0 c34 0
57 -20 106 -90 9 -13 23 -21 33 -19 16 3 13 12 -22 62 -24 33 -35 57 -27 57
22 0 46 35 46 67 0 50 -25 63 -118 63 l-82 0 0 -125z m140 92 c59 -30 26 -77
-56 -77 l-54 0 0 38 c0 21 3 42 7 45 11 11 76 8 103 -6z"/>
<path d="M2000 255 l0 -125 95 0 c78 0 95 3 95 15 0 12 -16 15 -81 15 l-80 0
3 43 3 42 73 3 c99 4 94 26 -6 30 l-72 3 0 34 0 34 77 3 c50 2 78 7 81 16 3 9
-20 12 -92 12 l-96 0 0 -125z"/>
<path d="M7 73 c-9 -9 12 -33 29 -33 8 0 14 -4 14 -9 0 -18 -21 -23 -38 -10
-16 12 -16 12 -1 -4 17 -20 49 -13 49 9 0 8 -11 19 -25 24 -32 12 -32 24 0 18
13 -3 22 -1 19 3 -6 11 -38 12 -47 2z"/>
<path d="M112 43 c2 -31 7 -39 26 -41 12 -2 22 1 22 7 0 6 -9 11 -20 11 -27 0
-25 18 3 23 l22 4 -22 2 c-13 0 -23 5 -23 10 0 5 10 12 23 14 18 4 17 4 -6 6
-27 1 -28 -1 -25 -36z"/>
<path d="M221 43 c1 -21 3 -30 6 -20 5 21 12 21 32 3 14 -13 16 -11 16 17 0
27 -4 32 -27 35 -26 3 -28 1 -27 -35z m49 17 c0 -5 -9 -10 -20 -10 -11 0 -20
5 -20 10 0 6 9 10 20 10 11 0 20 -4 20 -10z"/>
<path d="M330 73 c0 -18 22 -63 32 -63 4 0 8 4 8 9 0 5 3 18 6 28 5 15 4 15
-7 -2 -12 -19 -13 -18 -25 10 -7 17 -13 25 -14 18z"/>
<path d="M443 45 c0 -22 2 -30 4 -17 2 12 2 30 0 40 -3 9 -5 -1 -4 -23z"/>
<path d="M506 64 c-9 -23 -8 -31 9 -48 16 -16 45 -12 45 6 0 7 -5 6 -14 -1
-10 -9 -16 -8 -26 4 -17 21 -5 49 20 42 11 -3 20 -1 20 4 0 16 -48 10 -54 -7z"/>
<path d="M623 45 c0 -22 2 -30 4 -17 2 12 2 30 0 40 -3 9 -5 -1 -4 -23z"/>
<path d="M687 74 c-15 -16 -6 -54 16 -64 20 -10 21 -10 4 4 -24 18 -18 51 8
51 15 0 20 -7 20 -27 -1 -16 3 -24 8 -19 5 5 7 19 5 32 -2 17 -10 25 -28 27
-14 2 -29 0 -33 -4z"/>
<path d="M807 73 c-13 -13 -7 -24 20 -34 19 -7 23 -13 15 -21 -8 -8 -15 -8
-27 2 -8 7 -15 8 -15 2 0 -16 31 -23 46 -11 21 17 17 28 -13 41 l-28 11 25 7
c22 7 22 8 4 9 -11 1 -24 -2 -27 -6z"/>
<path d="M970 46 c0 -50 51 -61 65 -15 9 26 -11 49 -41 49 -21 0 -24 -5 -24
-34z m55 -1 c0 -13 -8 -21 -22 -23 -19 -3 -23 1 -23 23 0 22 4 26 23 23 14 -2
22 -10 22 -23z"/>
<path d="M1092 43 c2 -27 8 -39 21 -41 9 -2 17 1 17 7 0 6 -7 11 -15 11 -23 0
-18 18 8 23 l22 4 -22 2 c-13 0 -23 5 -23 10 0 5 10 12 23 14 18 4 17 4 -6 6
-27 1 -28 -1 -25 -36z"/>
<path d="M1263 45 c0 -22 2 -30 4 -17 2 12 2 30 0 40 -3 9 -5 -1 -4 -23z"/>
<path d="M1332 45 c0 -33 1 -36 7 -15 l7 25 12 -22 c19 -34 32 -28 31 15 -1
23 -3 28 -6 15 -2 -13 -8 -23 -12 -23 -5 0 -16 10 -24 23 -16 22 -16 21 -15
-18z"/>
<path d="M1447 73 c-10 -9 -9 -51 1 -57 5 -3 6 9 4 26 -4 29 -3 31 22 26 14
-3 26 -1 26 3 0 10 -44 12 -53 2z"/>
<path d="M1562 43 c2 -32 7 -39 28 -41 14 -2 21 0 17 5 -5 4 -14 8 -19 8 -22
0 -18 24 4 28 l23 4 -22 2 c-13 0 -23 5 -23 10 0 5 10 12 23 14 18 4 17 4 -6
6 -27 1 -28 -1 -25 -36z"/>
<path d="M1660 74 c0 -3 14 -19 30 -36 35 -35 39 -29 8 12 -20 27 -38 39 -38
24z"/>
<path d="M1783 45 c0 -22 2 -30 4 -17 2 12 2 30 0 40 -3 9 -5 -1 -4 -23z"/>
<path d="M1853 73 c9 -2 25 -2 35 0 9 3 1 5 -18 5 -19 0 -27 -2 -17 -5z"/>
<path d="M1951 43 c1 -21 3 -30 6 -20 6 21 22 22 37 1 10 -13 12 -10 13 20 1
33 -1 36 -28 36 -27 0 -29 -3 -28 -37z m49 17 c0 -5 -9 -10 -20 -10 -11 0 -20
5 -20 10 0 6 9 10 20 10 11 0 20 -4 20 -10z"/>
<path d="M2073 45 c0 -22 2 -30 4 -17 2 12 2 30 0 40 -3 9 -5 -1 -4 -23z"/>
<path d="M2140 50 c-7 -17 -10 -33 -7 -37 3 -3 9 6 13 21 3 14 10 23 15 20 5
-3 7 -8 5 -12 -2 -4 3 -14 12 -22 14 -13 15 -12 8 5 -5 11 -11 28 -13 38 -8
25 -19 21 -33 -13z"/>
<path d="M1850 49 c0 -5 9 -9 20 -9 11 0 20 2 20 4 0 2 -9 6 -20 9 -11 3 -20
1 -20 -4z"/>
<path d="M1489 37 c6 -8 9 -17 6 -21 -3 -3 0 -2 6 3 12 10 4 31 -13 31 -7 0
-7 -4 1 -13z"/>
<path d="M1853 17 c5 -15 37 -22 37 -9 0 5 -9 12 -21 15 -13 3 -19 1 -16 -6z"/>
</g>
</svg>
